<svg xmlns="http://www.w3.org/2000/svg" width="512" height="512" viewBox="0 0 512 512" version="1.1">
	<path d="M 198.214 32.181 C 195.469 39.552, 193.051 51.890, 192.372 61.993 C 191.622 73.142, 193.731 85.726, 198.461 98.341 C 200.491 103.753, 201.980 108.353, 201.770 108.563 C 201.561 108.773, 198.695 105.919, 195.403 102.222 C 183.639 89.013, 141.349 48.200, 133.159 42.153 C 125.447 36.458, 121.823 35.074, 123.781 38.573 C 124.224 39.364, 129.152 45.072, 134.732 51.256 C 140.312 57.440, 149.742 68.322, 155.689 75.438 C 161.635 82.553, 171.450 92.859, 177.500 98.339 C 183.550 103.820, 188.647 108.677, 188.827 109.133 C 189.007 109.589, 187.542 109.289, 185.571 108.465 C 173.840 103.564, 157.972 106.855, 144.500 116.985 C 138.762 121.299, 134.777 127, 137.500 127 C 138.387 127, 143.737 124.986, 149.389 122.525 C 167.476 114.649, 178.326 113.932, 190.290 119.822 C 204.667 126.900, 211.084 135.709, 218.496 158.541 C 229.125 191.284, 228.116 209.410, 215.160 218.466 C 211.117 221.292, 210.228 221.496, 202.160 221.444 C 186.302 221.342, 160.686 211.090, 149.304 200.289 C 139.079 190.586, 136.058 181.436, 136.002 160 C 135.955 141.961, 134.045 140.524, 129.951 155.447 C 128.198 161.835, 127.861 165.325, 128.166 173.912 C 128.498 183.236, 128.915 185.290, 131.657 191.117 C 134.237 196.600, 136.161 198.898, 142.885 204.526 C 147.348 208.262, 151 211.472, 151 211.660 C 151 213.159, 147.021 211.158, 141.328 206.795 C 137.593 203.932, 128.454 198.265, 121.019 194.202 C 113.583 190.138, 102.484 183.279, 96.353 178.959 C 81.116 168.222, 69.642 161.808, 59.938 158.600 C 46.771 154.249, 47.471 155.536, 65.248 168.367 C 72.536 173.628, 83.675 182.034, 90 187.047 C 98.361 193.673, 104.705 197.708, 113.242 201.830 C 124.403 207.220, 126.583 208.642, 123.750 208.686 C 123.063 208.697, 118.511 209.246, 113.635 209.905 C 102.126 211.463, 91.094 215.010, 83.092 219.724 C 75.375 224.272, 62.779 235.874, 56.378 244.332 C 51.435 250.862, 46.592 260.275, 47.214 262.141 C 47.418 262.754, 52.741 258.438, 59.043 252.550 C 79.025 233.878, 91.665 225.552, 104.070 222.892 C 112.038 221.183, 128.655 222.361, 139.781 225.423 C 151.722 228.710, 174.654 238.015, 183 242.959 C 191.871 248.215, 194.455 251.154, 194.455 255.992 C 194.455 264.372, 185.840 270.652, 148 289.850 C 130.093 298.936, 125.248 300.968, 119.007 302.011 C 105.401 304.284, 95.830 301.050, 77.500 287.985 C 59.150 274.907, 29.705 258.050, 28.530 259.952 C 27.669 261.344, 32.993 266.945, 41.194 273.277 C 63.595 290.570, 83.008 304.379, 88.817 307.151 C 97.904 311.488, 109.820 312.199, 121.958 309.130 C 126.570 307.964, 130.487 307.154, 130.664 307.330 C 131.689 308.356, 107.735 314.570, 84 319.435 C 32.061 330.081, 27 331.370, 27 333.949 C 27 335.336, 46.536 335.332, 60.144 333.942 C 75.523 332.372, 106.147 326.453, 117.187 322.918 C 126.387 319.971, 134.923 315.162, 145 307.249 L 148.500 304.500 144.711 309 C 128.059 328.774, 120 346.181, 120 362.374 C 120 367.681, 120.180 368.248, 121.458 366.964 C 122.260 366.159, 125.606 359.535, 128.893 352.245 C 137.920 332.227, 143.285 323.715, 153 314 C 162.679 304.321, 172.239 298.403, 185.680 293.770 C 192.902 291.281, 195.495 290.857, 201.615 291.166 C 208.362 291.507, 209.198 291.800, 212.472 294.973 C 216.107 298.497, 217.985 303.125, 217.994 308.590 C 218.008 316.360, 210.384 339.003, 201.780 356.742 C 196.007 368.642, 190.494 374.385, 181.558 377.805 C 170.034 382.215, 161.338 382.709, 136.617 380.359 C 128.110 379.550, 127.936 381.123, 136.080 385.240 C 148.549 391.544, 163.188 392.512, 178.497 388.043 C 187.918 385.292, 188.395 385.336, 186.608 388.792 C 183.370 395.052, 175.253 404.555, 169.557 408.751 C 157.491 417.641, 148.597 420.709, 125.099 424.088 C 102.651 427.316, 90.508 430.977, 89.196 434.913 C 88.818 436.047, 89.830 436.187, 94.615 435.663 C 97.852 435.308, 110.175 434.125, 122 433.035 C 152.620 430.211, 162.475 427.259, 176.507 416.711 C 189.088 407.254, 196.961 393.501, 203.434 369.676 C 206.457 358.547, 208.897 352.818, 210.255 353.657 C 211.563 354.466, 210.418 359.895, 206.424 371.825 C 201.421 386.771, 200.335 394.229, 201.749 403.932 C 203.054 412.887, 211.767 436.633, 213.215 435.185 C 214.595 433.805, 214.332 425.699, 212.479 412.500 C 210.593 399.063, 210.951 390.839, 214.043 376.602 C 217.476 360.796, 228.576 336.528, 236.730 327.002 C 240.541 322.550, 247.251 319, 251.856 319 C 256.418 319, 262.248 322.262, 265.879 326.848 C 270.385 332.537, 281.184 355.275, 285.383 367.914 C 291.694 386.912, 289.893 396.313, 277.595 408.572 C 273.693 412.462, 267.800 417.469, 264.500 419.698 C 258.004 424.086, 253 428.684, 253 430.264 C 253 431.784, 260.248 430.307, 266.618 427.490 C 273.975 424.237, 284.230 416.868, 287.723 412.326 C 289.250 410.340, 292.075 405.741, 294 402.107 C 297.101 396.253, 297.870 395.464, 300.750 395.187 C 302.538 395.014, 304 394.690, 304 394.465 C 304 394.241, 302.864 391.489, 301.476 388.350 C 300.088 385.211, 299.137 382.161, 299.364 381.572 C 300.063 379.749, 303.756 389.037, 306.441 399.371 C 309.405 410.776, 309.596 416.165, 307.444 427.647 C 305.800 436.422, 305.827 445.128, 307.500 445.663 C 308.810 446.082, 312.684 439.230, 315.090 432.240 C 317.639 424.829, 317.603 413.602, 315 404.500 C 313.900 400.654, 313 397.110, 313 396.625 C 313 396.140, 315.179 399.064, 317.841 403.122 C 324.950 413.955, 330.691 419.843, 346.405 432.416 C 368.376 449.995, 379.103 457.204, 399.539 468.123 C 406.388 471.783, 409 472.763, 409 471.674 C 409 469.646, 400.889 462.730, 373 440.978 C 355.591 427.400, 345.335 418.483, 333.431 406.575 C 324.593 397.734, 315.704 389.238, 313.677 387.696 C 310.252 385.090, 291.063 361.422, 291.020 359.750 C 291.009 359.337, 291.858 359, 292.907 359 C 294.998 359, 298.957 363.496, 309.642 378 C 325.674 399.763, 334.404 407.651, 349.346 413.872 C 364.254 420.078, 378.944 420.153, 396.018 414.112 C 405.173 410.872, 418.296 403.336, 417.682 401.671 C 417.444 401.027, 416.826 400.585, 416.308 400.689 C 415.789 400.793, 409.996 402.231, 403.433 403.884 C 386.773 408.079, 376.632 409.207, 367.268 407.904 C 350.777 405.611, 339.680 399.667, 325.445 385.504 C 307.082 367.235, 291.386 338.926, 288.473 318.825 C 286.727 306.777, 296.216 294.805, 308.648 293.370 C 317.799 292.314, 334.445 297.660, 351.761 307.216 C 368.696 316.562, 371.916 320.991, 378.502 344 C 380.470 350.875, 383.236 359.425, 384.648 363 C 386.060 366.575, 387.643 370.610, 388.165 371.966 C 388.936 373.969, 389.289 374.157, 390.042 372.966 C 392.073 369.754, 390.131 348.915, 386.464 334.566 C 382.848 320.420, 376.248 311.320, 364.705 304.564 C 362.067 303.020, 360.153 301.514, 360.450 301.217 C 361.579 300.088, 406.042 323.046, 417.852 330.855 C 431.723 340.028, 440.887 344.702, 452.224 348.388 C 462.322 351.672, 467 352.537, 467 351.122 C 467 349.952, 464.133 347.991, 443.500 335.046 C 436.350 330.560, 426.421 324.055, 421.436 320.590 C 415.619 316.547, 409.708 313.402, 404.936 311.811 L 397.500 309.332 409.500 308.709 C 429.046 307.694, 442.942 303.178, 462.309 291.546 C 482.105 279.656, 494.187 270.895, 492.774 269.455 C 491.631 268.289, 481.113 272.499, 460 282.573 C 430.499 296.650, 418.194 299.899, 399.076 298.661 C 376.772 297.216, 337.840 282.855, 325.047 271.352 C 316.421 263.597, 316.217 255.500, 324.466 248.239 C 332.267 241.372, 363.367 225.360, 379.006 220.159 C 403.952 211.863, 416.893 212.113, 431.046 221.166 C 440.605 227.281, 454.388 239.440, 465.122 251.228 C 475.975 263.147, 478.615 264.093, 473.644 254.284 C 463.862 234.981, 438.771 210.979, 423.692 206.501 C 410.755 202.659, 390.928 207.270, 362.685 220.689 C 353.987 224.822, 346.578 227.911, 346.220 227.554 C 343.538 224.872, 354.899 218.260, 371.920 212.598 C 408.032 200.584, 429.442 198.577, 459.608 204.376 C 477.163 207.751, 495.309 210.070, 496.323 209.067 C 498.402 207.013, 480.730 199.438, 463.551 195.021 C 437.932 188.433, 414.532 189.066, 391.593 196.966 C 388.345 198.085, 385.420 198.986, 385.093 198.968 C 383.680 198.892, 389.165 195.498, 397.500 191.292 C 420.784 179.541, 431.648 169.364, 449.796 142.301 C 456.508 132.291, 462 123.629, 462 123.051 C 462 118.728, 451.414 128.035, 437.037 145 C 420.046 165.049, 413.831 170.221, 390.464 183.759 C 383.704 187.675, 378.950 192.143, 370.637 202.389 C 365.984 208.125, 359.477 213.019, 356.600 212.948 C 354.616 212.898, 354.638 212.802, 357 211.216 C 358.375 210.292, 362.348 206.835, 365.829 203.534 C 376.680 193.242, 385.060 178.564, 386.567 167.209 C 387.270 161.907, 386.398 153, 385.175 153 C 384.789 153, 383.143 156.918, 381.517 161.707 C 371.415 191.461, 352.026 211.530, 324.098 221.138 C 317.035 223.568, 306.830 223.560, 301.459 221.120 C 287.550 214.803, 287.589 199.904, 301.599 166.500 C 304.659 159.206, 306.523 156.354, 311.437 151.451 C 321.311 141.599, 331.704 138.040, 350.668 138.015 C 356.811 138.007, 362.548 137.727, 363.418 137.393 C 368.503 135.442, 361.305 131.845, 348.831 130.104 C 341.380 129.065, 329.639 130.158, 322.965 132.512 C 320.667 133.323, 318.385 133.738, 317.894 133.434 C 314.964 131.624, 319.287 120.720, 326.310 112.203 C 334.942 101.736, 347.193 94.405, 362.922 90.294 C 371.148 88.144, 375.428 87.716, 393.250 87.262 C 404.785 86.968, 414 86.325, 414 85.815 C 414 82.898, 395.097 79.010, 380.881 79.004 C 354.037 78.992, 331.318 89.006, 316.949 107.183 C 312.200 113.192, 309.985 119.067, 304.388 140.500 C 299.623 158.748, 288.694 189.695, 288.200 186.339 C 287.546 181.894, 292.430 162.732, 297.718 149 C 308.983 119.743, 310.624 112.900, 309.699 99.060 C 309.069 89.628, 306.404 79.865, 301.807 70.149 C 297.344 60.717, 296.471 63.112, 298.527 79.143 C 300.868 97.390, 300.159 116.772, 296.658 130.228 C 290.473 153.995, 275.787 182.279, 265.807 189.643 C 261.995 192.455, 256.464 192.714, 253.304 190.228 C 248.102 186.136, 237.626 163.558, 235.058 150.904 C 233.454 143.001, 234.809 137.953, 242.773 122.160 C 248.323 111.154, 249.500 107.969, 249.500 103.960 C 249.500 96.040, 247.722 95.859, 244.184 103.420 C 241.271 109.645, 232.913 122.318, 230.900 123.562 C 229.452 124.456, 223.398 120.295, 220.179 116.192 C 215.742 110.536, 209.262 98.120, 206.458 89.898 C 202.036 76.929, 200.866 67.365, 201.192 46.828 C 201.355 36.558, 201.198 27.864, 200.842 27.509 C 200.486 27.153, 199.304 29.256, 198.214 32.181 M 206 114.466 C 206 114.723, 207.689 117.546, 209.754 120.741 C 211.819 123.936, 214.719 129.464, 216.198 133.025 C 217.678 136.586, 219.638 141.300, 220.556 143.500 C 223.145 149.712, 223.502 145.646, 220.978 138.677 C 216.727 126.937, 209.373 114, 206.949 114 C 206.427 114, 206 114.210, 206 114.466 M 243.666 213.018 C 225.102 219.582, 214.053 234.273, 212.325 254.691 C 210.798 272.731, 218.801 289.744, 233.187 299.043 C 241.249 304.253, 249.746 306.369, 260.367 305.812 C 267.645 305.430, 269.956 304.832, 276.329 301.682 C 294.949 292.479, 305.036 274.054, 302.134 254.544 C 299.297 235.466, 288.977 220.822, 273.449 213.838 C 266.221 210.587, 251.674 210.186, 243.666 213.018 M 125.500 213.828 C 126.050 214.396, 131.225 216.025, 137 217.448 C 142.775 218.872, 155.517 222.595, 165.315 225.722 C 178.661 229.981, 183.538 231.150, 184.756 230.382 C 187.453 228.681, 187.283 227.198, 184.209 225.608 C 175.941 221.332, 122.351 210.580, 125.500 213.828 M 161 288.092 C 154.675 291.425, 147.255 295.580, 144.511 297.325 C 140.202 300.068, 139.832 300.544, 141.794 300.824 C 143.049 301.003, 147.070 299.499, 150.783 297.462 C 157.413 293.824, 174 283.028, 174 282.349 C 174 281.441, 171.671 282.470, 161 288.092" stroke="none" fill="#2e4fb2" fill-rule="evenodd"/>
</svg>