<svg xmlns="http://www.w3.org/2000/svg" width="512" height="512" viewBox="0 0 512 512" version="1.1">
	<path d="M 248.615 20.415 C 243.467 22.326, 238.095 27.714, 234.514 34.558 C 232.911 37.622, 231.333 40.294, 231.007 40.496 C 230.681 40.697, 224.808 41.775, 217.957 42.891 C 203.903 45.180, 188.935 49.381, 176.518 54.521 C 171.895 56.434, 167.179 58, 166.038 58 C 164.897 58, 161.640 56.785, 158.801 55.301 C 144.987 48.078, 129.437 53.708, 124.427 67.748 C 123.690 69.812, 123.068 74.740, 123.044 78.701 L 123 85.902 113.250 93.059 C 107.888 96.995, 98.325 105.510, 92 111.979 L 80.500 123.742 73 124.210 C 64.711 124.727, 60.837 126.317, 55.944 131.210 C 48.378 138.776, 46.328 151.173, 50.829 162.141 L 53.144 167.782 48.199 179.141 C 42.624 191.945, 37.828 206.284, 35.480 217.162 C 33.135 228.031, 32.785 228.579, 26.932 230.522 C 12.611 235.279, 5.437 251.185, 10.676 266.563 C 12.953 273.246, 20.726 280.908, 28 283.640 L 33.500 285.705 36.620 298.103 C 39.960 311.371, 43.799 322.806, 49.087 335.238 L 52.378 342.976 50.179 349.238 C 45.962 361.245, 48.009 371.140, 56.458 379.589 C 62.781 385.911, 69.144 388.337, 77.091 387.454 L 82.500 386.853 86.308 391.677 C 92.583 399.625, 105.964 412.809, 114.750 419.697 L 123 426.166 123 433.615 C 123 445.520, 126.829 452.045, 136.500 456.617 C 144.197 460.255, 151.055 459.895, 159.811 455.391 L 166.828 451.781 177.164 455.797 C 194.201 462.417, 210.642 466.869, 224 468.481 C 232.381 469.492, 232.529 469.591, 237.002 477.119 C 247.567 494.903, 264.370 495.297, 275.744 478.028 C 278.078 474.483, 280.578 470.993, 281.300 470.272 C 282.021 469.550, 287.987 468.061, 294.556 466.964 C 307.848 464.743, 319.275 461.720, 335.101 456.238 L 345.702 452.566 352.681 455.783 C 361.434 459.818, 368.165 460.068, 375.541 456.633 C 385.035 452.212, 390.317 443.194, 389.810 432.272 L 389.500 425.604 396 420.751 C 406.244 413.104, 415.342 404.629, 423.147 395.463 L 430.353 387 437.427 386.978 C 445.200 386.954, 450.299 385.167, 455.770 380.549 C 464.675 373.032, 467.442 359.947, 462.628 348.115 L 460.030 341.729 464.911 329.615 C 470.185 316.523, 473.988 304.640, 476.508 293.378 L 478.102 286.257 484.732 283.439 C 492.975 279.936, 497.400 276.117, 500.651 269.703 C 503.981 263.131, 504.679 255.847, 502.648 248.861 C 500.170 240.337, 496.233 235.706, 488.311 231.996 C 484.565 230.242, 480.837 228.471, 480.026 228.060 C 479.115 227.599, 477.500 222.606, 475.800 214.990 C 472.532 200.346, 471.279 196.352, 464.915 180.294 L 460.078 168.087 462.111 162.294 C 466.098 150.930, 464.117 139.903, 456.699 132.162 C 451.367 126.599, 446.486 124.578, 438.255 124.526 L 431.011 124.481 418.755 112.261 C 412.015 105.541, 402.450 96.959, 397.500 93.191 L 388.500 86.341 388.837 79.691 C 389.322 70.132, 387.094 64.168, 380.982 58.674 C 372.724 51.249, 363.017 50.113, 352.861 55.382 C 346.265 58.804, 343.386 58.687, 334.127 54.616 C 321.907 49.243, 307.562 45.028, 294.027 42.834 C 280.064 40.571, 280.120 40.605, 274.194 30.600 C 268.673 21.277, 257.876 16.978, 248.615 20.415 M 208.500 59.658 C 186.345 64.722, 166.843 74.359, 162.277 82.500 C 158.667 88.935, 159.219 91.430, 166.942 103.580 C 178.805 122.241, 191.410 140.301, 193.500 141.631 C 195.227 142.730, 196.697 142.363, 204.255 138.946 C 214.391 134.364, 226.662 130.634, 238.095 128.659 C 242.513 127.897, 246.601 126.799, 247.180 126.220 C 248.635 124.765, 249.711 112.262, 250.535 87.229 L 251.234 65.957 247.759 62.679 C 245.847 60.876, 242.480 58.861, 240.276 58.201 C 233.832 56.270, 220.682 56.873, 208.500 59.658 M 268 59.355 C 260.385 63.244, 260.423 63.039, 261.787 93.736 C 262.445 108.540, 263.482 122.083, 264.091 123.832 C 265.289 127.267, 265.587 127.392, 276.500 129.044 C 286.724 130.592, 293.307 132.657, 304.191 137.730 C 310.958 140.884, 314.612 142.063, 316.303 141.639 C 319.537 140.827, 351 94.083, 351 90.089 C 351 88.616, 349.538 84.956, 347.750 81.956 C 344.788 76.984, 343.657 76.076, 335 71.723 C 310.040 59.173, 279.422 53.521, 268 59.355 M 135.716 96.530 C 128.715 99.100, 117.572 107.428, 106.990 118 C 94.190 130.788, 87.895 140.034, 87.222 147.037 C 86.641 153.083, 88.274 155.939, 94.243 159.316 C 96.584 160.641, 109.405 167.912, 122.734 175.475 C 141.288 186.001, 147.500 189.076, 149.234 188.591 C 150.566 188.218, 153.877 184.528, 157.267 179.638 C 160.440 175.063, 166.852 167.459, 171.517 162.741 C 177.856 156.331, 180 153.495, 180 151.520 C 180 148.224, 155.658 103.029, 151.382 98.386 C 148.718 95.493, 147.626 95.010, 143.882 95.070 C 141.472 95.109, 137.797 95.766, 135.716 96.530 M 360.814 96.044 C 358.667 97.297, 354.703 103.909, 342.078 127.299 C 336.497 137.639, 331.665 147.425, 331.341 149.047 C 330.807 151.717, 331.660 152.943, 340.358 162.005 C 345.642 167.510, 352.513 175.650, 355.626 180.094 C 358.740 184.538, 361.957 188.430, 362.776 188.744 C 363.594 189.058, 367.917 187.465, 372.382 185.203 C 389.527 176.518, 421.606 158.731, 423.850 156.664 C 425.871 154.803, 426.124 153.844, 425.656 149.818 C 424.938 143.656, 422.372 138.824, 414.853 129.477 C 404.181 116.212, 384.181 100.092, 373.888 96.461 C 369.156 94.791, 363.283 94.604, 360.814 96.044 M 231.350 144.985 C 211.376 150.221, 194.712 160.149, 180.128 175.502 C 171.514 184.570, 166 192.628, 166 196.148 C 166 199.822, 169.078 202.171, 185.192 210.799 C 204.169 220.958, 203.690 220.953, 213.395 211.106 C 221.868 202.509, 229.313 197.942, 241.163 194.071 C 244.846 192.868, 248.167 191.136, 248.589 190.197 C 249.008 189.264, 249.542 179.207, 249.775 167.849 C 250.184 147.916, 250.126 147.126, 248.099 145.099 C 245.478 142.478, 241.028 142.447, 231.350 144.985 M 264 145 C 262.142 146.858, 262 148.332, 262.002 165.750 C 262.004 190.432, 261.886 190.177, 275.503 195.069 C 287.720 199.458, 292.261 202.256, 301.746 211.233 C 310.451 219.472, 309.491 219.470, 325.500 211.292 C 345.401 201.127, 347 200.024, 347 196.459 C 347 190.288, 328.610 169.548, 315.283 160.688 C 305.414 154.127, 293.047 148.510, 281.893 145.522 C 270.469 142.461, 266.650 142.350, 264 145 M 77.445 167.009 C 68.151 171.610, 61.935 181.742, 54.447 204.500 C 49.665 219.034, 47 231.574, 47 239.538 C 47 244.141, 47.369 245.149, 49.750 247.044 C 52.450 249.193, 52.889 249.220, 74 248.567 C 108.745 247.491, 126.016 246.219, 128.563 244.550 C 130.283 243.424, 131.325 240.877, 132.968 233.787 C 134.152 228.679, 136.443 220.034, 138.060 214.575 C 140.765 205.445, 140.878 204.462, 139.471 202.316 C 138.054 200.153, 94.465 170.360, 87.288 166.649 C 83.218 164.544, 82.361 164.576, 77.445 167.009 M 414.388 174.100 C 394.417 186.652, 374.465 200.762, 373.112 203.290 C 372.090 205.199, 372.296 206.992, 374.351 214.084 C 375.707 218.761, 377.590 226.618, 378.536 231.544 C 380.627 242.425, 381.896 244.641, 386.747 245.879 C 391.377 247.059, 456.933 249.485, 460.438 248.605 C 461.833 248.255, 463.698 246.864, 464.583 245.514 C 465.980 243.381, 466.037 242.106, 465.014 235.780 C 461.548 214.334, 451.683 183.725, 445.654 175.711 C 442.368 171.342, 433.458 166, 429.459 166 C 428.259 166, 421.477 169.645, 414.388 174.100 M 242.977 208.220 C 222.999 215.203, 211.024 230.748, 208.479 253 C 207.022 265.740, 213.786 282.941, 223.887 292.187 C 230.746 298.466, 241.472 303.723, 250.463 305.212 C 268.266 308.162, 288.946 298.668, 299.064 282.900 C 303.775 275.558, 306.002 267.281, 305.988 257.161 C 305.959 235.870, 296.316 220.209, 277.493 210.882 C 269.302 206.822, 268.193 206.543, 259.138 206.251 C 251.140 205.993, 248.390 206.328, 242.977 208.220 M 338.273 218.761 C 330.462 223.610, 322.869 228.622, 321.401 229.899 C 318.809 232.153, 318.757 232.412, 319.615 238.860 C 320.101 242.512, 320.499 252.453, 320.500 260.950 L 320.500 276.401 326.189 280.950 C 332.042 285.631, 346.365 294.179, 351.783 296.224 C 355.989 297.812, 357.512 296.321, 360.038 288.141 C 365.908 269.137, 366.530 245.299, 361.644 226.646 C 358.903 216.185, 356.321 210.686, 353.934 210.226 C 353.132 210.071, 346.085 213.912, 338.273 218.761 M 155.527 213.250 C 154.655 214.488, 153.104 218.200, 152.082 221.500 C 145.738 241.973, 146.829 272.194, 154.654 292.750 C 156.907 298.669, 159.314 298.403, 171.547 290.878 C 195.642 276.059, 195.483 276.252, 194.455 263.108 C 194.033 257.725, 194.251 250.874, 195.023 245.225 C 196.563 233.958, 196.055 232.928, 185.703 226.348 C 181.741 223.829, 174.900 219.344, 170.500 216.380 C 161.660 210.426, 158.050 209.671, 155.527 213.250 M 249.929 224.367 C 230.163 229.697, 219.272 250.808, 227.273 268.285 C 230.555 275.454, 237.548 282.438, 244.804 285.795 C 253.149 289.655, 264.230 289.615, 272.214 285.694 C 282.764 280.513, 290 269.079, 290 257.588 C 290 242.787, 278.460 228.370, 263.540 224.533 C 256.587 222.745, 255.975 222.737, 249.929 224.367 M 49.939 261.763 C 46.745 264.617, 46.525 265.210, 46.634 270.660 C 46.970 287.452, 60.292 329.159, 68.357 338.672 C 72.096 343.082, 79.127 346.351, 83.029 345.494 C 86.011 344.839, 135.277 312.925, 139.750 308.751 C 142.548 306.140, 142.550 306.181, 139.426 296.488 C 138.011 292.095, 135.583 282.934, 134.030 276.132 C 132.263 268.387, 130.515 263.082, 129.354 261.941 C 127.655 260.271, 124.392 260.059, 90.431 259.412 L 53.361 258.706 49.939 261.763 M 397.273 259.939 C 382.398 260.621, 381.618 261.144, 380.010 271.500 C 379.413 275.350, 377.351 284.464, 375.429 291.754 C 371.487 306.705, 371.507 306.855, 378.249 312.294 C 383.779 316.757, 419.594 341.222, 423.720 343.355 C 428.225 345.685, 431.839 345.407, 438.071 342.250 C 442.661 339.925, 443.995 338.573, 446.706 333.500 C 454.163 319.543, 464.516 285.712, 465.739 271.306 C 466.239 265.415, 466.115 264.961, 463.209 262.056 L 460.154 259 434.827 259.189 C 420.897 259.294, 403.998 259.631, 397.273 259.939 M 182 298.438 C 165.002 308.239, 164.130 309.387, 168.035 316.813 C 171.412 323.234, 184.587 336.776, 193.303 342.785 C 206.566 351.928, 220.966 358.062, 234.966 360.530 C 241.205 361.630, 242.965 361.624, 245.680 360.489 C 249.996 358.686, 250.361 356.776, 249.789 338.966 C 249.212 320.993, 248.806 320.108, 240.011 317.663 C 227.779 314.262, 216.894 307.002, 207.909 296.250 C 200.899 287.862, 200.243 287.917, 182 298.438 M 304.323 299.683 C 294.341 309.710, 285.858 314.792, 274.490 317.557 C 270.241 318.590, 266.520 320.195, 265 321.650 C 262.519 324.025, 262.500 324.178, 262.500 341.601 C 262.500 357.991, 262.633 359.259, 264.500 360.665 C 268.560 363.720, 288.375 359.584, 303.784 352.464 C 320.702 344.647, 338.674 329.399, 345.261 317.272 C 349.418 309.619, 348.735 308.702, 332.157 299.690 C 324.452 295.502, 317.022 291.793, 315.647 291.448 C 313.490 290.906, 311.934 292.038, 304.323 299.683 M 143.349 323.250 C 125.077 333.230, 93.108 352.125, 89.922 354.828 C 83.731 360.081, 84.814 365.128, 95.142 379.149 C 102.453 389.074, 123.389 408.873, 130.674 412.750 C 138.527 416.930, 146.416 417.315, 149.825 413.686 C 152.266 411.088, 178.197 363.863, 180.153 358.454 L 181.412 354.973 171.719 345.236 C 166.388 339.881, 160.593 333.475, 158.840 331 C 154.171 324.407, 150.835 321, 149.047 321 C 148.179 321, 145.615 322.012, 143.349 323.250 M 361.863 322.250 C 361.027 322.938, 357.315 327.440, 353.614 332.255 C 349.912 337.070, 343.827 343.595, 340.092 346.755 C 330.675 354.720, 330.498 355.072, 333.016 360.786 C 336.301 368.241, 360.307 411.942, 362.289 414.075 C 364.878 416.861, 373.230 416.697, 378.734 413.750 C 386.691 409.491, 395.523 402.477, 405.524 392.474 C 421.753 376.242, 428.646 363.813, 425.097 357.181 C 424.475 356.019, 420.711 353.192, 416.733 350.899 C 412.755 348.606, 400.950 341.672, 390.500 335.490 C 364.007 319.816, 364.528 320.057, 361.863 322.250 M 193.082 366.138 C 188.687 370.233, 159.930 414.643, 159.415 418.132 C 158.733 422.745, 163.586 430.954, 169.238 434.749 C 184.141 444.754, 216.882 454.581, 232.885 453.853 C 239.373 453.558, 241.344 453.038, 244.902 450.684 C 251.814 446.110, 252.265 444.002, 251.003 422.182 C 249.655 398.883, 248.197 381.677, 247.394 379.584 C 247.056 378.703, 245.817 377.802, 244.640 377.582 C 243.463 377.361, 237.409 376.236, 231.187 375.081 C 224.913 373.917, 214.527 370.982, 207.868 368.491 C 201.265 366.021, 195.753 364, 195.620 364 C 195.486 364, 194.344 364.962, 193.082 366.138 M 305.500 368.152 C 296.124 371.950, 280.654 375.981, 269.699 377.481 C 265.923 377.998, 264.710 378.633, 264.016 380.458 C 263.006 383.114, 261 419.277, 261 434.822 L 261 445.235 264.786 449.022 C 270.352 454.587, 274.534 455.402, 287.580 453.465 C 305.720 450.772, 332.483 442.251, 342.241 436.062 C 347.262 432.878, 352.974 424.389, 352.991 420.088 C 353.003 416.985, 350.486 412.714, 334.671 389 C 322.512 370.768, 317.412 363.930, 316.063 364.050 C 315.753 364.078, 311 365.924, 305.500 368.152" stroke="none" fill="#a6173a" fill-rule="evenodd"/>
</svg>