<?xml version="1.0" ?>
<!-- Uploaded to: SVG Repo, www.svgrepo.com, Generator: SVG Repo Mixer Tools -->
<svg width="800px" height="800px" viewBox="0 0 24 24" xmlns="http://www.w3.org/2000/svg">
<defs>
<style>.cls-1{fill:#f1734d;}.cls-1,.cls-2{fill-rule:evenodd;}.cls-2{fill:#9293a5;}.cls-3{fill:#f94060;}.cls-4{fill:#96ccee;}</style>
</defs>
<g id="Rate">
<path class="cls-1" d="M7.63,14.14,10.43,10a.5.5,0,0,0-.83-.56L6.8,13.58a.49.49,0,0,0,.13.69A.5.5,0,0,0,7.63,14.14Z"/>
<path class="cls-2" d="M11.82,9.56l2.8,2a.5.5,0,0,0,.69-.11.51.51,0,0,0-.11-.7l-2.8-2a.5.5,0,1,0-.58.81Z"/>
<path class="cls-2" d="M17.45,10.92l2.69-4.09a.5.5,0,0,0-.84-.55l-2.68,4.09a.5.5,0,0,0,.83.55Z"/>
<path class="cls-3" d="M6.34,13.2A1.78,1.78,0,1,1,4.56,15,1.78,1.78,0,0,1,6.34,13.2"/>
<path class="cls-4" d="M10.82,6.79A1.78,1.78,0,1,1,9,8.57a1.78,1.78,0,0,1,1.78-1.78"/>
<path class="cls-3" d="M16.18,10a1.78,1.78,0,1,1-1.78,1.78A1.78,1.78,0,0,1,16.18,10"/>
<path class="cls-4" d="M20.49,3.59a1.78,1.78,0,1,1-1.78,1.78,1.78,1.78,0,0,1,1.78-1.78"/>
<rect class="cls-3" height="1.89" rx="0.43" width="4.91" x="16.26" y="16.66"/>
<path class="cls-2" d="M2.84,21.5H21.91a.5.5,0,0,1,0,1H2.34a.5.5,0,0,1-.5-.5V2.43a.5.5,0,0,1,.5-.5.5.5,0,0,1,.5.5Z"/>
<path class="cls-2" d="M6.84,18.36v-.68a.51.51,0,0,0-.5-.5.5.5,0,0,0-.5.5v.68a.5.5,0,0,0,.5.5A.51.51,0,0,0,6.84,18.36Z"/>
<path class="cls-2" d="M11.32,5.82V5.15a.5.5,0,0,0-1,0v.67a.5.5,0,0,0,1,0Z"/>
<path class="cls-2" d="M16.68,15.14v-.68a.51.51,0,0,0-.5-.5.5.5,0,0,0-.5.5v.68a.5.5,0,0,0,.5.5A.51.51,0,0,0,16.68,15.14Z"/>
<path class="cls-2" d="M21,2.67V2a.5.5,0,0,0-1,0v.67a.5.5,0,0,0,1,0Z"/>
<path class="cls-2" d="M16.26,20.67h2.91a.5.5,0,0,0,.5-.5.51.51,0,0,0-.5-.5H16.26a.51.51,0,0,0-.5.5A.5.5,0,0,0,16.26,20.67Z"/>
</g>
</svg>