<?xml version="1.0" encoding="utf-8"?>
<!-- Generator: Adobe Adobe Illustrator 24.2.0, SVG Export Plug-In . SVG Version: 6.00 Build 0)  -->
<svg version="1.1" xmlns="http://www.w3.org/2000/svg" xmlns:xlink="http://www.w3.org/1999/xlink" x="0px" y="0px" width="1250px"
	 height="750px" viewBox="0 0 1250 750" style="enable-background:new 0 0 1250 750;" xml:space="preserve">
<style type="text/css">
	.st0{display:none;}
	.st1{display:inline;}
	.st2{fill:#DECEBF;}
	.st3{fill:#C0AF9B;}
	.st4{fill:#BFAE9A;}
	.st5{fill:#CAB9A4;}
	.st6{fill:#B9AB96;}
	.st7{fill:#E3D3C6;}
	.st8{fill:#A09380;}
	.st9{fill:#A59682;}
	.st10{fill:#B4A390;}
	.st11{fill:#BCAB97;}
	.st12{fill:#B8A794;}
	.st13{fill:#C8B6A1;}
	.st14{fill:#BDAC99;}
	.st15{fill:#A49784;}
	.st16{fill:#150F05;}
	.st17{fill:#958A78;}
	.st18{fill:#A99C88;}
	.st19{fill:#9D907D;}
	.st20{fill:#C7B7A3;}
	.st21{fill:#D7C7B7;}
	.st22{fill:#C5B4A1;}
	.st23{fill:#AE9E8B;}
	.st24{fill:#5E5646;}
	.st25{fill:#988D7B;}
	.st26{fill:#908573;}
	.st27{fill:#474133;}
	.st28{fill:#534C3D;}
	.st29{fill:#897F6D;}
	.st30{fill:#665E4F;}
	.st31{fill:#6E6454;}
	.st32{fill:#766E5C;}
	.st33{fill:#585343;}
	.st34{fill:#413A2C;}
	.st35{fill:#7A705F;}
	.st36{fill:#847B68;}
	.st37{fill:#7F7664;}
	.st38{fill:#746A58;}
	.st39{fill:#353024;}
	.st40{fill:#BEB09C;}
	.st41{fill:#B6A894;}
	.st42{fill:#C3B39F;}
	.st43{fill:#282118;}
	.st44{fill:#B4A691;}
	.st45{fill:#B2A490;}
	.st46{fill:#A69985;}
	.st47{fill:#AFA38E;}
	.st48{fill:#CCBCA7;}
	.st49{fill:#928876;}
	.st50{fill:#B1A48F;}
	.st51{fill:#AEA18C;}
	.st52{fill:#A19681;}
	.st53{fill:#9D927F;}
	.st54{fill:#A59B85;}
	.st55{fill:#A49A84;}
	.st56{fill:#9D917F;}
	.st57{fill:#ACA18B;}
	.st58{opacity:0.749;fill:none;stroke:#FFFFFF;stroke-width:24;stroke-linecap:round;stroke-miterlimit:10;}
	.st59{fill:none;stroke:#29ABE2;stroke-width:24;stroke-linecap:round;stroke-miterlimit:10;}
	.st60{display:inline;fill:none;stroke:#29ABE2;stroke-width:30;stroke-linecap:round;stroke-miterlimit:10;}
	.st61{fill:#29ABE2;stroke:#29ABE2;stroke-width:12;stroke-linecap:round;stroke-linejoin:round;stroke-miterlimit:10;}
	
		.st62{display:inline;opacity:0.7098;fill:#29ABE2;stroke:#29ABE2;stroke-width:12;stroke-linecap:round;stroke-linejoin:round;stroke-miterlimit:10;}
	.st63{display:inline;fill:none;stroke:#29ABE2;stroke-width:40;stroke-miterlimit:10;}
	.st64{fill:none;stroke:#FFFFFF;stroke-width:24;stroke-linecap:round;stroke-miterlimit:10;}
	.st65{fill:none;stroke:#FFFFFF;stroke-width:24;stroke-miterlimit:10;}
	.st66{fill:none;stroke:#FFFFFF;stroke-width:40;stroke-miterlimit:10;}
	.st67{fill:#FFFFFF;stroke:#FFFFFF;stroke-width:12;stroke-linecap:round;stroke-linejoin:round;stroke-miterlimit:10;}
	.st68{fill:#29ABE2;}
	.st69{display:inline;fill:none;stroke:#29ABE2;stroke-width:30;stroke-miterlimit:10;}
	.st70{fill:#1673C5;}
	.st71{fill:#1B207A;}
	.st72{fill:#FFFFFF;}
	.st73{fill:#3CD6B2;}
	.st74{fill:#132170;}
	.st75{fill:#404040;}
	.st76{fill:url(#SVGID_1_);}
	.st77{fill:url(#SVGID_2_);}
	.st78{fill:url(#SVGID_3_);stroke:#1B207A;stroke-miterlimit:10;}
	.st79{fill:url(#SVGID_4_);stroke:#C7C7C7;stroke-miterlimit:10;}
	.st80{fill:url(#SVGID_5_);}
	.st81{fill:url(#SVGID_6_);stroke:#C7C7C7;stroke-miterlimit:10;}
	.st82{fill:url(#SVGID_7_);}
	.st83{fill:url(#SVGID_8_);}
	.st84{fill:url(#SVGID_9_);}
	.st85{fill:#193A94;}
</style>
<g id="Layer_1" class="st0">
</g>
<g id="Layer_2" class="st0">
</g>
<g id="Layer_4">
</g>
<g id="Layer_2_copy">
	<g>
		<g>
			<g>
				<g>
					<path class="st70" d="M672.61,25.23c-1.48-0.48-3.08,0.22-3.74,1.65c-7.49,16.39-19.01,31.82-33.3,44.6
						c-0.33,0.29-0.66,0.6-1.01,0.88c-0.46-0.37-0.88-0.75-1.3-1.1c-15.94-13.79-28.37-30.55-36.01-48.52
						c-0.6-1.41-2.16-2.16-3.64-1.74c-1.47,0.4-2.42,1.85-2.2,3.37c0.26,1.81,0.51,3.33,0.81,4.76c1.61,8.15,4.29,16.12,8,23.85
						c3.72,7.75,8.48,15.24,14.25,22.46c2.16,2.69,4.51,5.39,6.98,8.02h0.02c0.04,0.04,0.05,0.05,0.09,0.09
						c0.6,0.68,1.26,1.34,1.9,2c2.93,2.99,6.05,5.92,9.31,8.7c0.57,0.49,1.28,0.75,2,0.75c0.75,0,1.52-0.29,2.11-0.86
						c3.06-2.93,6.01-5.99,8.76-9.12c0.66-0.75,1.3-1.5,1.94-2.25c5.55-6.59,10.42-13.61,14.51-20.86
						c6.05-10.77,10.28-21.93,12.58-33.15C674.97,27.22,674.09,25.72,672.61,25.23z"/>
				</g>
			</g>
			<path class="st70" d="M636.1,289.83c-9.99,0-19.68-3.18-27.86-9.23c-10.1-7.47-16.68-18.42-18.53-30.84l0,0
				c-1.86-12.42,1.23-24.82,8.7-34.91c7.47-10.1,18.42-16.68,30.84-18.53c12.42-1.86,24.82,1.23,34.91,8.7
				c10.1,7.47,16.68,18.42,18.53,30.84c1.86,12.42-1.23,24.82-8.7,34.91c-7.47,10.09-18.42,16.68-30.84,18.53
				C640.8,289.66,638.44,289.83,636.1,289.83z M609.87,246.75c1.05,7.03,4.78,13.24,10.5,17.46c5.72,4.23,12.74,5.98,19.77,4.93
				c7.03-1.05,13.24-4.78,17.46-10.5c4.23-5.72,5.98-12.74,4.93-19.77c-1.05-7.03-4.78-13.24-10.5-17.46
				c-5.72-4.23-12.74-5.98-19.77-4.93c-7.03,1.05-13.23,4.78-17.46,10.5C610.57,232.7,608.82,239.72,609.87,246.75L609.87,246.75z"
				/>
			<path class="st70" d="M509.26,320.07c-0.79,4.21-1.76,8.39-2.88,12.4c-0.27,0.93-0.53,1.87-0.81,2.78
				c-1.04,3.46-2.22,6.85-3.46,10.07c-3.35,8.61-7.47,16.49-12.31,23.57c-4.85,7.09-10.4,13.39-16.67,18.85
				c-1.1,0.97-2.27,1.94-3.72,3.08c-0.55,0.44-1.23,0.66-1.89,0.66c-0.77,0-1.56-0.29-2.14-0.88c-1.1-1.08-1.23-2.8-0.31-4.03
				c11.74-15.59,20.06-34.75,24.03-55.44c0.09-0.53,0.2-1.1,0.31-1.67c-0.44-0.15-0.86-0.29-1.28-0.44
				c-18.22-5.99-37.35-8.24-55.3-6.54c-1.54,0.15-2.95-0.9-3.28-2.42c-0.31-1.52,0.55-3.04,2.03-3.54c10.86-3.61,22.64-5.51,35-5.66
				c8.32-0.11,16.83,0.6,25.31,2.12c0.97,0.17,1.94,0.35,2.93,0.55c4.07,0.82,8.21,1.83,12.27,3.02
				C508.62,317.01,509.55,318.53,509.26,320.07z"/>
			<path class="st70" d="M840.81,169.09c-10.86,3.61-22.64,5.53-35,5.68h-1.52c-7.82,0-15.83-0.71-23.79-2.14
				c-0.13-0.02-0.24-0.04-0.37-0.07c-0.84-0.15-1.7-0.29-2.56-0.48c-4.07-0.81-8.21-1.83-12.27-3.02c-1.5-0.44-2.44-1.94-2.14-3.5
				c0.79-4.21,1.76-8.39,2.88-12.4c0.27-0.93,0.53-1.87,0.81-2.78c1.04-3.46,2.22-6.85,3.46-10.07c3.37-8.61,7.47-16.49,12.33-23.57
				c4.84-7.09,10.4-13.39,16.65-18.85c1.1-0.95,2.27-1.94,3.72-3.08c1.21-0.93,2.93-0.84,4.03,0.22c1.1,1.08,1.23,2.8,0.31,4.03
				c-11.74,15.59-20.06,34.77-24.03,55.45c-0.09,0.55-0.2,1.1-0.31,1.69c0.44,0.15,0.86,0.29,1.28,0.42
				c18.23,5.99,37.35,8.26,55.3,6.54c1.54-0.15,2.95,0.9,3.28,2.42C843.15,167.07,842.29,168.59,840.81,169.09z"/>
			<path class="st70" d="M847.77,313.24c-1.7-0.68-3.13-1.21-4.51-1.69c-10.37-3.54-21.39-5.31-32.91-5.31
				c-5.97,0-12.09,0.48-18.32,1.43c-3.41,0.53-6.92,1.21-10.46,2.05c-0.93,0.22-1.87,0.46-2.8,0.7c-4.05,1.04-8.15,2.29-12.18,3.7
				c-1.5,0.51-2.34,2.09-1.96,3.61c0.99,4.12,2.18,8.21,3.52,12.14c0.31,0.95,0.64,1.89,0.99,2.82c2.93,8.1,6.56,15.83,10.81,22.97
				c6.3,10.64,13.85,19.87,22.42,27.49c0.57,0.51,1.3,0.77,2.03,0.77c0.71,0,1.45-0.27,2.03-0.79c1.15-1.04,1.36-2.78,0.46-4.05
				c-10.46-14.69-18.06-32.38-21.98-51.16c-0.09-0.42-0.18-0.86-0.27-1.32c0.55-0.18,1.08-0.38,1.61-0.57
				c19.91-6.91,40.66-9.29,60.02-6.92c1.52,0.18,2.95-0.79,3.33-2.27C849.99,315.35,849.2,313.81,847.77,313.24z"/>
			<path class="st70" d="M678.8,464.65c-0.28,0.07-0.57,0.11-0.82,0.11c-1.21,0-2.33-0.71-2.82-1.87
				c-7.64-17.95-20.08-34.73-36.01-48.52c-0.42-0.35-0.84-0.73-1.3-1.1c-0.35,0.27-0.68,0.59-1.01,0.88
				c-14.29,12.79-25.81,28.21-33.3,44.62c-0.51,1.1-1.63,1.78-2.78,1.78c-0.33,0-0.64-0.04-0.95-0.15c-1.48-0.48-2.36-2-2.05-3.52
				c2.31-11.23,6.54-22.38,12.58-33.15c4.08-7.25,8.96-14.27,14.51-20.86c0.64-0.75,1.28-1.5,1.94-2.25
				c2.75-3.13,5.7-6.19,8.76-9.12c1.14-1.1,2.91-1.14,4.1-0.11c3.26,2.78,6.37,5.71,9.31,8.7c0.59,0.6,1.19,1.23,1.74,1.83
				c0.09,0.09,0.18,0.16,0.26,0.26h0.02c2.47,2.64,4.82,5.33,6.98,8.02c5.79,7.22,10.55,14.73,14.27,22.46
				c3.72,7.75,6.39,15.72,7.99,23.85c0.29,1.43,0.55,2.95,0.81,4.76C681.22,462.78,680.26,464.23,678.8,464.65z"/>
			<path class="st70" d="M505.81,171.5c-4.03,1.43-8.13,2.67-12.18,3.7c-0.13,0.04-0.26,0.07-0.38,0.09
				c-0.81,0.22-1.61,0.42-2.42,0.6c-0.11,0.04-0.24,0.05-0.35,0.07c-3.42,0.81-6.81,1.47-10.11,1.98
				c-6.25,0.95-12.36,1.43-18.34,1.43c-11.54,0-22.55-1.78-32.9-5.31c-1.37-0.48-2.8-1.01-4.51-1.69c-1.43-0.57-2.22-2.11-1.83-3.61
				c0.38-1.48,1.81-2.45,3.33-2.27c19.36,2.38,40.11-0.02,60.02-6.92c0.53-0.18,1.06-0.37,1.61-0.57c-0.09-0.46-0.18-0.9-0.28-1.32
				c-3.92-18.77-11.52-36.47-21.98-51.16c-0.9-1.26-0.7-3,0.46-4.05c1.15-1.03,2.91-1.04,4.07,0c8.57,7.6,16.12,16.85,22.42,27.48
				c4.25,7.14,7.88,14.87,10.81,22.97c0.35,0.93,0.68,1.89,0.99,2.82c1.34,3.94,2.53,8.04,3.52,12.14
				C508.16,169.43,507.32,170.99,505.81,171.5z"/>
			<path class="st70" d="M719.17,43.19c-4.76,23.19-13.5,46.23-26.01,68.51c-8.43,15-18.54,29.53-30.02,43.17
				c-1.34,1.58-2.69,3.15-4.03,4.67c-5.7,6.48-11.8,12.84-18.13,18.92c-0.6,0.55-1.35,0.84-2.13,0.84c-0.71,0-1.41-0.24-2-0.73
				c-6.72-5.81-13.21-11.87-19.27-18.04c-1.48-1.52-2.84-2.93-4.16-4.32c-5.15-5.46-10-11.05-14.47-16.63
				c-11.94-14.89-21.78-30.39-29.45-46.34c-7.67-15.97-13.21-32.4-16.52-49.22c-0.57-2.95-1.1-6.06-1.63-9.8
				c-0.22-1.52,0.71-2.97,2.2-3.39c1.48-0.4,3.04,0.35,3.65,1.76c16.17,38.08,42.57,73.67,76.33,102.87
				c1.56,1.36,3.21,2.75,4.96,4.21c1.48-1.28,2.91-2.53,4.3-3.77c30.3-27.09,54.71-59.8,70.59-94.59c0.66-1.41,2.25-2.11,3.74-1.63
				C718.6,40.17,719.48,41.67,719.17,43.19z"/>
			<path class="st70" d="M850.55,214.86c-22.46,7.47-46.78,11.41-72.33,11.72c-1.04,0-2.09,0.02-3.13,0.02
				c-16.21,0-32.75-1.5-49.25-4.43c-2.05-0.37-4.08-0.75-6.08-1.15c-8.44-1.69-17.02-3.79-25.44-6.25c-1.5-0.44-2.44-1.96-2.14-3.52
				c1.65-8.72,3.66-17.36,5.99-25.72c0.57-2.03,1.1-3.92,1.65-5.75c2.16-7.18,4.58-14.2,7.16-20.84
				c6.94-17.79,15.44-34.05,25.42-48.69c10-14.64,21.47-27.64,34.36-38.9c2.25-1.98,4.69-3.97,7.68-6.32
				c1.21-0.95,2.93-0.86,4.03,0.22c1.1,1.08,1.23,2.8,0.29,4.03c-24.89,33.06-42.5,73.71-50.92,117.54
				c-0.38,2.01-0.77,4.12-1.15,6.39c1.85,0.64,3.65,1.26,5.4,1.83c38.61,12.69,79.15,17.49,117.21,13.87
				c1.56-0.15,2.97,0.9,3.3,2.42C852.9,212.85,852.02,214.37,850.55,214.86z"/>
			<path class="st70" d="M861.11,277.23c-0.38,1.48-1.81,2.45-3.33,2.27c-41.08-5.04-85.08,0.04-127.27,14.65
				c-1.94,0.68-3.96,1.41-6.1,2.22c0.35,1.9,0.71,3.79,1.1,5.61c8.32,39.78,24.43,77.28,46.6,108.44c0.92,1.26,0.71,3-0.44,4.05
				c-0.59,0.51-1.32,0.79-2.05,0.79c-0.71,0-1.45-0.26-2.03-0.77c-17.68-15.72-33.26-34.82-46.31-56.78
				c-8.77-14.8-16.3-30.81-22.36-47.59c-0.71-1.96-1.41-3.92-2.05-5.82c-2.77-8.17-5.22-16.63-7.31-25.17
				c-0.37-1.52,0.48-3.1,1.96-3.61c8.39-2.93,16.89-5.51,25.26-7.67c2.05-0.53,3.96-1.01,5.83-1.45c7.29-1.72,14.58-3.13,21.63-4.21
				c37.75-5.79,73.34-3.1,105.74,7.97c2.84,0.97,5.79,2.07,9.31,3.48C860.7,274.19,861.49,275.73,861.11,277.23z"/>
			<path class="st70" d="M718.86,454.79c-0.27,0.07-0.55,0.11-0.82,0.11c-1.21,0-2.33-0.71-2.82-1.87
				c-16.17-38.08-42.57-73.65-76.33-102.87c-1.54-1.34-3.19-2.73-4.96-4.19c-1.48,1.26-2.91,2.51-4.3,3.76
				c-30.3,27.11-54.71,59.8-70.61,94.59c-0.49,1.12-1.61,1.78-2.77,1.78c-0.33,0-0.64-0.04-0.95-0.15c-1.48-0.48-2.36-2-2.05-3.52
				c4.76-23.17,13.5-46.23,26.01-68.5c8.43-14.98,18.54-29.51,30.02-43.15c1.34-1.59,2.69-3.17,4.03-4.69
				c5.7-6.48,11.8-12.84,18.13-18.9c1.14-1.1,2.93-1.14,4.12-0.11c6.72,5.79,13.23,11.85,19.27,18.02c1.48,1.52,2.86,2.93,4.16,4.32
				c5.15,5.46,10,11.06,14.47,16.63c23.89,29.8,39.34,61.95,45.98,95.56c0.57,2.95,1.1,6.06,1.63,9.8
				C721.27,452.92,720.34,454.37,718.86,454.79z"/>
			<path class="st70" d="M580.9,210.12c-8.39,2.95-16.89,5.53-25.26,7.67c-0.13,0.04-0.26,0.07-0.38,0.09
				c-1.91,0.49-3.68,0.95-5.44,1.36c-7.29,1.72-14.58,3.13-21.63,4.21c-12.91,1.98-25.57,2.97-37.93,2.97
				c-23.79,0-46.49-3.65-67.81-10.94c-2.84-0.97-5.81-2.07-9.3-3.48c-1.43-0.57-2.22-2.11-1.83-3.61c0.38-1.48,1.81-2.45,3.33-2.27
				c41.08,5.04,85.08-0.04,127.27-14.65c1.94-0.68,3.94-1.41,6.1-2.2c-0.35-1.92-0.71-3.79-1.1-5.6
				c-8.32-39.8-24.43-77.3-46.6-108.45c-0.92-1.26-0.71-3,0.44-4.05c1.15-1.03,2.91-1.04,4.08,0c17.68,15.7,33.26,34.8,46.31,56.76
				c8.77,14.8,16.3,30.81,22.36,47.59c0.71,1.96,1.41,3.92,2.05,5.82c2.77,8.17,5.22,16.65,7.31,25.17
				C583.22,208.05,582.38,209.6,580.9,210.12z"/>
			<path class="st70" d="M580.24,274.37c-1.65,8.72-3.66,17.38-5.99,25.72c-0.55,2-1.1,3.92-1.65,5.75
				c-2.16,7.18-4.58,14.2-7.16,20.84c-13.88,35.59-34,65.06-59.79,87.59c-2.25,1.98-4.69,3.97-7.67,6.32
				c-0.55,0.44-1.21,0.66-1.89,0.66c-0.77,0-1.54-0.29-2.14-0.88c-1.1-1.06-1.23-2.78-0.29-4.01
				c24.89-33.06,42.49-73.71,50.92-117.54c0.38-2.03,0.77-4.14,1.15-6.41c-1.85-0.64-3.66-1.26-5.4-1.83
				c-38.61-12.69-79.15-17.49-117.21-13.87c-1.56,0.15-2.97-0.9-3.3-2.42c-0.31-1.52,0.57-3.04,2.03-3.54
				c22.46-7.47,46.78-11.41,72.33-11.7c17.2-0.2,34.82,1.28,52.39,4.4c2.05,0.37,4.08,0.75,6.08,1.15
				c8.44,1.68,17.02,3.79,25.44,6.26C579.59,271.31,580.53,272.81,580.24,274.37z"/>
		</g>
		<g>
			<path class="st70" d="M218.4,731.34h-81c-10.27,0-19.77-1.8-28.5-5.4c-8.73-3.6-16.3-8.63-22.7-15.1c-6.4-6.47-11.4-14.13-15-23
				c-3.6-8.87-5.4-18.57-5.4-29.1c0-10.53,1.8-20.23,5.4-29.1c3.6-8.87,8.6-16.53,15-23c6.4-6.47,13.97-11.5,22.7-15.1
				c8.73-3.6,18.23-5.4,28.5-5.4c10.13,0,19.57,1.8,28.3,5.4c8.73,3.6,16.3,8.63,22.7,15.1c6.4,6.47,11.4,14.13,15,23
				c3.6,8.87,5.4,18.57,5.4,29.1c0,12.8-2.63,24.3-7.9,34.5c-5.27,10.2-13.7,18.37-25.3,24.5v0.4h42.8V731.34z M81.4,658.74
				c0,7.87,1.27,15.37,3.8,22.5c2.53,7.13,6.2,13.43,11,18.9c4.8,5.47,10.67,9.83,17.6,13.1c6.93,3.27,14.8,4.9,23.6,4.9
				c8.67,0,16.47-1.63,23.4-4.9c6.93-3.27,12.8-7.63,17.6-13.1c4.8-5.47,8.47-11.77,11-18.9c2.53-7.13,3.8-14.63,3.8-22.5
				c0-7.87-1.27-15.37-3.8-22.5c-2.53-7.13-6.2-13.43-11-18.9c-4.8-5.47-10.67-9.83-17.6-13.1c-6.93-3.27-14.73-4.9-23.4-4.9
				c-8.8,0-16.67,1.63-23.6,4.9c-6.93,3.27-12.8,7.63-17.6,13.1c-4.8,5.47-8.47,11.77-11,18.9C82.67,643.37,81.4,650.87,81.4,658.74
				z"/>
			<path class="st70" d="M380.8,678.54c0,5.87-0.7,12.1-2.1,18.7c-1.4,6.6-4.03,12.7-7.9,18.3c-3.87,5.6-9.17,10.23-15.9,13.9
				c-6.73,3.67-15.37,5.5-25.9,5.5c-10.67,0-19.33-1.83-26-5.5c-6.67-3.67-11.93-8.3-15.8-13.9c-3.87-5.6-6.5-11.7-7.9-18.3
				c-1.4-6.6-2.1-12.83-2.1-18.7v-88.8h14.4v87.2c0,6.8,0.67,12.63,2,17.5c1.33,4.87,3.1,8.97,5.3,12.3c2.2,3.33,4.67,5.97,7.4,7.9
				c2.73,1.93,5.47,3.43,8.2,4.5c2.73,1.07,5.37,1.77,7.9,2.1c2.53,0.33,4.73,0.5,6.6,0.5c1.73,0,3.9-0.17,6.5-0.5
				c2.6-0.33,5.27-1.03,8-2.1c2.73-1.07,5.47-2.57,8.2-4.5c2.73-1.93,5.2-4.57,7.4-7.9c2.2-3.33,3.97-7.43,5.3-12.3
				c1.33-4.87,2-10.7,2-17.5v-87.2h14.4V678.54z"/>
			<path class="st70" d="M468.6,718.14h75.8v13.2h-90.2v-141.6H542v13.2h-73.4v48.2h68.6v13.2h-68.6V718.14z"/>
			<path class="st70" d="M624.6,731.34h-14.4v-141.6h43.6c14.4,0,25.77,3.13,34.1,9.4c8.33,6.27,12.5,15.73,12.5,28.4
				c0,9.87-3.1,18.17-9.3,24.9c-6.2,6.73-15.17,10.63-26.9,11.7l40.8,67.2h-17.6l-38.8-65.8h-24V731.34z M624.6,652.34h25.6
				c6.4,0,11.83-0.67,16.3-2c4.47-1.33,8.03-3.1,10.7-5.3c2.67-2.2,4.6-4.8,5.8-7.8s1.8-6.23,1.8-9.7c0-3.33-0.6-6.5-1.8-9.5
				s-3.13-5.63-5.8-7.9c-2.67-2.27-6.23-4.03-10.7-5.3c-4.47-1.27-9.9-1.9-16.3-1.9h-25.6V652.34z"/>
			<path class="st70" d="M780.6,718.14h75.8v13.2h-90.2v-141.6H854v13.2h-73.4v48.2h68.6v13.2h-68.6V718.14z"/>
			<path class="st70" d="M1024.59,709.74h0.4v-120h14.4v141.6h-18l-84.4-121.2h-0.4v121.2h-14.4v-141.6h18L1024.59,709.74z"/>
			<path class="st70" d="M1160.59,731.34h-14.4v-128.4h-47.4v-13.2h109.2v13.2h-47.4V731.34z"/>
		</g>
	</g>
</g>
</svg>
