<svg width="184" height="36" viewBox="0 0 184 36" fill="none" xmlns="http://www.w3.org/2000/svg">
<path d="M50.1039 27.192C48.8239 27.192 47.6319 26.976 46.5279 26.544C45.4399 26.112 44.4959 25.512 43.6959 24.744C42.8959 23.96 42.2719 23.048 41.8239 22.008C41.3759 20.968 41.1519 19.832 41.1519 18.6C41.1519 17.368 41.3759 16.232 41.8239 15.192C42.2719 14.152 42.8959 13.248 43.6959 12.48C44.4959 11.696 45.4399 11.088 46.5279 10.656C47.6159 10.224 48.8079 10.008 50.1039 10.008C51.3839 10.008 52.5599 10.224 53.6319 10.656C54.7199 11.072 55.6639 11.672 56.4639 12.456C57.2799 13.224 57.9039 14.128 58.3359 15.168C58.7839 16.208 59.0079 17.352 59.0079 18.6C59.0079 19.848 58.7839 20.992 58.3359 22.032C57.9039 23.072 57.2799 23.984 56.4639 24.768C55.6639 25.536 54.7199 26.136 53.6319 26.568C52.5599 26.984 51.3839 27.192 50.1039 27.192ZM55.5999 30.504C55.0399 30.504 54.5039 30.432 53.9919 30.288C53.4799 30.16 52.9679 29.944 52.4559 29.64C51.9439 29.352 51.4159 28.968 50.8719 28.488C50.3279 28.024 49.7359 27.448 49.0959 26.76L51.6639 26.088C52.1439 26.68 52.5999 27.16 53.0319 27.528C53.4799 27.912 53.9199 28.184 54.3519 28.344C54.7839 28.52 55.2079 28.608 55.6239 28.608C56.8239 28.608 57.8479 28.128 58.6959 27.168L59.8239 28.536C58.7359 29.848 57.3279 30.504 55.5999 30.504ZM50.1039 25.056C51.0319 25.056 51.8879 24.896 52.6719 24.576C53.4719 24.256 54.1599 23.8 54.7359 23.208C55.3279 22.616 55.7839 21.928 56.1039 21.144C56.4399 20.36 56.6079 19.512 56.6079 18.6C56.6079 17.672 56.4399 16.816 56.1039 16.032C55.7839 15.248 55.3279 14.568 54.7359 13.992C54.1599 13.4 53.4719 12.944 52.6719 12.624C51.8879 12.304 51.0319 12.144 50.1039 12.144C49.1599 12.144 48.2879 12.304 47.4879 12.624C46.7039 12.944 46.0159 13.4 45.4239 13.992C44.8319 14.568 44.3679 15.248 44.0319 16.032C43.7119 16.816 43.5519 17.672 43.5519 18.6C43.5519 19.512 43.7119 20.36 44.0319 21.144C44.3679 21.928 44.8319 22.616 45.4239 23.208C46.0159 23.8 46.7039 24.256 47.4879 24.576C48.2879 24.896 49.1599 25.056 50.1039 25.056ZM73.2362 27.192C71.0282 27.192 69.2922 26.56 68.0282 25.296C66.7642 24.032 66.1322 22.184 66.1322 19.752V10.2H68.5322V19.656C68.5322 21.528 68.9402 22.896 69.7562 23.76C70.5882 24.624 71.7562 25.056 73.2602 25.056C74.7802 25.056 75.9482 24.624 76.7642 23.76C77.5962 22.896 78.0122 21.528 78.0122 19.656V10.2H80.3402V19.752C80.3402 22.184 79.7082 24.032 78.4442 25.296C77.1962 26.56 75.4602 27.192 73.2362 27.192ZM91.0446 17.448H99.6846V19.488H91.0446V17.448ZM91.2606 24.912H101.053V27H88.8606V10.2H100.717V12.288H91.2606V24.912ZM108.539 27V10.2H115.091C116.563 10.2 117.819 10.432 118.859 10.896C119.899 11.36 120.699 12.032 121.259 12.912C121.819 13.792 122.099 14.84 122.099 16.056C122.099 17.272 121.819 18.32 121.259 19.2C120.699 20.064 119.899 20.728 118.859 21.192C117.819 21.656 116.563 21.888 115.091 21.888H109.859L110.939 20.784V27H108.539ZM119.771 27L115.499 20.904H118.067L122.387 27H119.771ZM110.939 21.024L109.859 19.848H115.019C116.555 19.848 117.715 19.52 118.499 18.864C119.299 18.192 119.699 17.256 119.699 16.056C119.699 14.856 119.299 13.928 118.499 13.272C117.715 12.616 116.555 12.288 115.019 12.288H109.859L110.939 11.088V21.024ZM131.76 17.448H140.4V19.488H131.76V17.448ZM131.976 24.912H141.768V27H129.576V10.2H141.432V12.288H131.976V24.912ZM149.254 27V10.2H151.222L162.334 24H161.302V10.2H163.702V27H161.734L150.622 13.2H151.654V27H149.254ZM175.667 27V12.288H169.907V10.2H183.803V12.288H178.043V27H175.667Z" fill="#177FBF"/>
<path d="M19.3205 1.57696C19.1512 2.40025 18.8409 3.21822 18.3978 4.00811C18.0981 4.54002 17.7407 5.05448 17.334 5.53783C17.2869 5.59322 17.2399 5.64785 17.1913 5.70324C16.9895 5.93315 16.7732 6.157 16.5494 6.37249C16.5061 6.41422 16.45 6.43547 16.3946 6.43547C16.3422 6.43547 16.2899 6.4165 16.2481 6.38008C16.0091 6.17597 15.7807 5.96123 15.566 5.74194C15.5189 5.69338 15.4704 5.64557 15.4264 5.59549C15.4233 5.59246 15.4226 5.5917 15.4195 5.58866H15.418C15.2367 5.39517 15.0644 5.19789 14.9066 5.00061C14.4832 4.47097 14.1342 3.92161 13.8617 3.35404C13.5893 2.78723 13.3928 2.20296 13.2744 1.60504C13.2532 1.50032 13.2342 1.38878 13.2153 1.256C13.1993 1.14445 13.2691 1.03822 13.3761 1.00863C13.4846 0.977521 13.5992 1.03291 13.6432 1.13611C14.2032 2.45412 15.1153 3.68259 16.2838 4.69481C16.3149 4.72061 16.3453 4.74869 16.3794 4.77525C16.4052 4.75476 16.4295 4.732 16.453 4.71075C17.5009 3.77289 18.3454 2.6423 18.8948 1.43962C18.9433 1.33491 19.0602 1.28407 19.1687 1.31897C19.2787 1.3554 19.3432 1.46542 19.3205 1.57696ZM17.01 20.6855C17.9205 20.5497 18.7241 20.0663 19.2719 19.3265C19.8197 18.5859 20.0466 17.6769 19.91 16.7663C19.7742 15.8558 19.2909 15.0522 18.551 14.5044C17.8105 13.9566 16.9014 13.7304 15.9909 13.8663C15.0804 14.0021 14.2768 14.4854 13.729 15.2252C13.1811 15.9658 12.9542 16.8749 13.0908 17.7854C13.2274 18.6959 13.71 19.4995 14.4498 20.0473C15.05 20.4912 15.7602 20.7242 16.4932 20.7242C16.6647 20.7242 16.8377 20.7113 17.01 20.6855ZM14.5697 17.5646C14.4923 17.0486 14.6213 16.5342 14.9309 16.1145C15.2412 15.6957 15.6957 15.4218 16.2117 15.3451C16.7277 15.2677 17.2421 15.396 17.6618 15.7063C18.0806 16.0167 18.3545 16.4712 18.4312 16.9872C18.5086 17.5031 18.3803 18.0176 18.07 18.4372C17.7596 18.856 17.3051 19.13 16.7891 19.2066C16.2732 19.284 15.7587 19.1558 15.3391 18.8454C14.9203 18.5351 14.6463 18.0806 14.5697 17.5646ZM7.03343 22.6849C6.73523 22.5976 6.43172 22.524 6.13351 22.4633C6.06067 22.4489 5.9901 22.4352 5.91878 22.4231C5.29657 22.3116 4.67209 22.2592 4.06203 22.2675C3.15528 22.2782 2.29178 22.4178 1.49505 22.6826C1.38655 22.719 1.32281 22.8306 1.34633 22.9421C1.37061 23.0536 1.47381 23.1303 1.58687 23.1197C2.90336 22.9945 4.3056 23.1599 5.64258 23.5992C5.67369 23.6098 5.70404 23.6205 5.73667 23.6311C5.72832 23.6728 5.72073 23.7145 5.7139 23.7532C5.42253 25.2708 4.81247 26.6761 3.95124 27.8196C3.88371 27.9099 3.89358 28.0358 3.97401 28.1147C4.01726 28.158 4.07493 28.1792 4.13108 28.1792C4.17964 28.1792 4.22896 28.1633 4.26918 28.1307C4.37541 28.0472 4.46115 27.9759 4.54158 27.9053C5.00065 27.5047 5.40811 27.0426 5.76398 26.5228C6.11834 26.003 6.42109 25.4256 6.66694 24.7943C6.75799 24.5576 6.8445 24.3094 6.92113 24.0552C6.94162 23.9877 6.95983 23.9194 6.98032 23.8511C7.06227 23.5567 7.13359 23.2509 7.19126 22.9413C7.21251 22.829 7.14346 22.7175 7.03343 22.6849ZM31.6545 11.6096C31.6302 11.4981 31.527 11.4215 31.414 11.4321C30.0975 11.558 28.6953 11.3919 27.3583 10.9525C27.3272 10.9434 27.2968 10.932 27.2642 10.9214C27.2725 10.8782 27.2801 10.8379 27.287 10.7977C27.5783 9.28092 28.1884 7.87489 29.0496 6.7314C29.1171 6.6411 29.1073 6.51514 29.0268 6.43623C28.9464 6.35807 28.8197 6.35124 28.7309 6.42029C28.6247 6.50376 28.5389 6.57585 28.4585 6.64565C28.0002 7.04629 27.592 7.50839 27.2376 8.02816C26.8818 8.54793 26.5805 9.12537 26.3339 9.75668C26.2429 9.99342 26.1564 10.2415 26.0797 10.4957C26.0592 10.5633 26.041 10.6316 26.0205 10.6998C25.9386 10.9943 25.8673 11.3 25.8096 11.6096C25.7883 11.7235 25.8566 11.8342 25.9667 11.8661C26.2649 11.9534 26.5684 12.0285 26.8666 12.0877C26.9296 12.1013 26.9925 12.1119 27.0548 12.1226C27.0639 12.1256 27.0722 12.1264 27.0813 12.1279C27.6656 12.2326 28.2529 12.285 28.8265 12.285H28.9381C29.8448 12.2743 30.7083 12.1332 31.505 11.8684C31.6143 11.8327 31.6773 11.7212 31.6545 11.6096ZM32.0157 22.4405C31.8905 22.3912 31.7858 22.3518 31.6849 22.3169C30.9246 22.0574 30.1157 21.9276 29.2712 21.9276C28.8334 21.9276 28.3849 21.9625 27.9281 22.0323C27.6785 22.071 27.4205 22.1211 27.161 22.1826C27.0927 22.1985 27.0237 22.2159 26.9554 22.2334C26.6587 22.31 26.3574 22.4011 26.0623 22.505C25.9522 22.543 25.89 22.6583 25.9189 22.7699C25.9917 23.0719 26.079 23.3716 26.1768 23.6607C26.1996 23.7305 26.2239 23.7988 26.2497 23.8678C26.4644 24.4612 26.7308 25.0288 27.0419 25.5523C27.504 26.3331 28.0571 27.01 28.6862 27.5684C28.7279 27.6064 28.7818 27.6246 28.8349 27.6246C28.8872 27.6246 28.9411 27.6041 28.9836 27.5669C29.0686 27.4903 29.083 27.3628 29.017 27.2702C28.2499 26.1927 27.6929 24.8952 27.4053 23.5188C27.3985 23.4877 27.3917 23.4558 27.3848 23.4224C27.425 23.4088 27.4637 23.3943 27.5032 23.3807C28.9631 22.8746 30.4852 22.6993 31.9049 22.8731C32.0165 22.8867 32.1212 22.8154 32.1493 22.7061C32.1788 22.5953 32.1204 22.4823 32.0157 22.4405ZM19.7856 33.2957C19.7666 33.163 19.7477 33.0514 19.7264 32.9467C19.6096 32.3503 19.4138 31.766 19.1406 31.1977C18.8682 30.6309 18.5184 30.08 18.0943 29.5511C17.9357 29.3538 17.7642 29.1566 17.5828 28.9631H17.5813C17.576 28.9562 17.5692 28.9509 17.5623 28.9441C17.5221 28.9001 17.4774 28.8538 17.4349 28.8098C17.2201 28.5905 16.9917 28.3758 16.7527 28.1717C16.6655 28.0965 16.535 28.0988 16.4515 28.18C16.2269 28.3947 16.0106 28.6193 15.8096 28.8493C15.761 28.9046 15.7139 28.9593 15.6669 29.0147C15.2602 29.498 14.9028 30.0125 14.6031 30.5444C14.16 31.3343 13.8496 32.1522 13.6804 32.9755C13.6576 33.0871 13.7221 33.1986 13.8306 33.2335C13.8534 33.2419 13.8762 33.2441 13.9004 33.2441C13.9854 33.2441 14.0674 33.1941 14.1046 33.1136C14.6539 31.9102 15.4992 30.7788 16.5463 29.8417C16.5706 29.8205 16.5949 29.7977 16.6199 29.7772C16.6533 29.8038 16.6844 29.8326 16.7155 29.8577C17.8841 30.8691 18.7961 32.0999 19.3561 33.4164C19.3925 33.5014 19.4745 33.5537 19.5633 33.5537C19.5822 33.5537 19.6035 33.5507 19.624 33.5454C19.7317 33.5135 19.8015 33.4073 19.7856 33.2957ZM7.082 11.7819C7.00915 11.4806 6.92189 11.1802 6.82401 10.8911C6.80124 10.8228 6.77696 10.753 6.75116 10.6839C6.53643 10.0905 6.27009 9.52297 5.95823 8.99941C5.49613 8.22013 4.94298 7.54178 4.31394 6.98483C4.22896 6.90819 4.09997 6.90971 4.01574 6.98483C3.93076 7.06147 3.91634 7.18894 3.98235 7.28152C4.74949 8.35899 5.3072 9.65652 5.59402 11.033C5.60085 11.0641 5.60767 11.0959 5.6145 11.1293C5.57429 11.1437 5.53483 11.1574 5.49613 11.1711C4.03623 11.6772 2.5141 11.8532 1.09441 11.6787C0.982873 11.665 0.878161 11.7363 0.850086 11.8456C0.822011 11.9556 0.879678 12.0687 0.984391 12.1104C1.10959 12.1605 1.2143 12.1992 1.31446 12.2341C2.07325 12.4936 2.8806 12.6234 3.72664 12.6234C4.16446 12.6234 4.61291 12.5885 5.07121 12.5187C5.31327 12.4807 5.56139 12.4329 5.81255 12.3737C5.82089 12.3722 5.83 12.3707 5.83835 12.3684C5.89753 12.3548 5.95672 12.3403 6.0159 12.3244C6.02501 12.3229 6.03487 12.3206 6.04398 12.3176C6.34066 12.2425 6.6419 12.1506 6.93707 12.0459C7.04861 12.0088 7.11007 11.8949 7.082 11.7819ZM22.4345 2.379C22.326 2.34409 22.2092 2.39493 22.1606 2.49889C20.9959 5.04993 19.2051 7.44921 16.9834 9.43571C16.881 9.52676 16.7762 9.61858 16.6677 9.71267C16.5387 9.60492 16.4181 9.50324 16.3035 9.40384C13.8276 7.26255 11.8919 4.65232 10.706 1.85999C10.6619 1.75679 10.5474 1.7014 10.4389 1.731C10.3304 1.76211 10.2613 1.86834 10.278 1.97988C10.3167 2.2538 10.3562 2.48219 10.3971 2.69845C10.6399 3.93148 11.0459 5.13643 11.6089 6.30799C12.1719 7.47804 12.8928 8.6147 13.7692 9.7066C14.097 10.1163 14.4528 10.5261 14.8307 10.926C14.9271 11.0284 15.0265 11.1316 15.1358 11.2431C15.5804 11.6961 16.0562 12.1408 16.5486 12.5665C16.5919 12.6029 16.6427 12.6203 16.6951 12.6203C16.7512 12.6203 16.8066 12.5991 16.8506 12.5589C17.3157 12.1127 17.7627 11.6468 18.1808 11.1711C18.2786 11.0595 18.378 10.9442 18.4759 10.8288C19.3182 9.828 20.0595 8.76267 20.6779 7.66243C21.5953 6.02876 22.2357 4.33894 22.5855 2.6385C22.6075 2.52544 22.543 2.41542 22.4345 2.379ZM32.3693 14.9665C32.345 14.855 32.2418 14.7783 32.1272 14.7889C29.3357 15.0553 26.3635 14.7032 23.5317 13.7722C23.4027 13.7304 23.2715 13.6849 23.1356 13.6379C23.1637 13.4709 23.1918 13.3169 23.2206 13.1689C23.8383 9.95472 25.1297 6.97345 26.9554 4.54913C27.0237 4.45883 27.0145 4.33287 26.9341 4.25396C26.8537 4.17505 26.727 4.16822 26.6389 4.23803C26.4197 4.41027 26.2413 4.55672 26.0759 4.70164C25.1305 5.52796 24.2897 6.48176 23.556 7.55468C22.8238 8.6276 22.2008 9.82041 21.6917 11.1248C21.502 11.6127 21.3252 12.1271 21.1666 12.6537C21.1264 12.788 21.0877 12.9261 21.0459 13.0756C20.8752 13.6879 20.7272 14.3223 20.6066 14.9612C20.5854 15.075 20.6536 15.1866 20.7637 15.2192C21.3813 15.399 22.0104 15.5538 22.6295 15.6775C22.776 15.7071 22.9247 15.7352 23.0757 15.7625C24.286 15.9772 25.4993 16.0872 26.6875 16.0872C26.7641 16.0872 26.8408 16.0857 26.9174 16.0857C28.7916 16.0629 30.5755 15.7739 32.2221 15.226C32.3276 15.1896 32.3921 15.078 32.3693 14.9665ZM32.8595 19.5352C32.6015 19.432 32.3852 19.3508 32.1773 19.2802C29.8008 18.4691 27.1913 18.2718 24.4225 18.6959C23.905 18.7749 23.3709 18.8788 22.8359 19.0048C22.6986 19.0366 22.559 19.0723 22.4087 19.111C21.7949 19.2696 21.1719 19.4585 20.5565 19.674C20.448 19.712 20.3858 19.8273 20.4131 19.9388C20.5664 20.5648 20.7462 21.1855 20.9488 21.7842C20.9959 21.9238 21.0467 22.068 21.0991 22.2114C21.5437 23.4421 22.0961 24.616 22.7395 25.701C23.6956 27.312 24.8391 28.7127 26.1351 29.8653C26.1784 29.9032 26.2315 29.9214 26.2838 29.9214C26.3377 29.9214 26.3916 29.9009 26.4341 29.8638C26.5191 29.7871 26.5335 29.6596 26.4659 29.5671C24.8406 27.2824 23.6584 24.5325 23.0484 21.615C23.0203 21.4822 22.993 21.3433 22.9679 21.2037C23.125 21.1445 23.273 21.0907 23.4149 21.0413C26.5084 19.9692 29.7348 19.5974 32.7479 19.9669C32.8595 19.9806 32.9642 19.9092 32.9923 19.8C33.0219 19.6899 32.9642 19.5769 32.8595 19.5352ZM22.7229 32.5734C22.6842 32.2995 22.6447 32.0711 22.603 31.8548C22.1166 29.3895 20.983 27.0327 19.2317 24.8467C18.9039 24.4384 18.548 24.0272 18.1701 23.6273C18.0745 23.5249 17.9744 23.4217 17.8651 23.3101C17.422 22.8571 16.9447 22.4125 16.4522 21.9883C16.365 21.9132 16.233 21.9155 16.1502 21.9967C15.6851 22.4413 15.2382 22.9072 14.8201 23.383C14.7222 23.4945 14.6228 23.6098 14.5242 23.7267C13.6819 24.7275 12.9406 25.7929 12.3229 26.8916C11.4056 28.5253 10.7644 30.2166 10.4153 31.9155C10.3926 32.027 10.4571 32.1386 10.5656 32.1735C10.5883 32.1818 10.6111 32.1841 10.6354 32.1841C10.7204 32.1841 10.8016 32.1356 10.838 32.0536C12.0042 29.5026 13.7942 27.1048 16.0167 25.1168C16.1191 25.0257 16.2239 24.9339 16.3324 24.8413C16.4629 24.9491 16.5835 25.0508 16.6966 25.1487C19.1725 27.2915 21.1082 29.9002 22.2941 32.6925C22.3306 32.7775 22.4125 32.8298 22.5013 32.8298C22.5218 32.8298 22.5415 32.8268 22.562 32.8215C22.6705 32.7904 22.7388 32.6849 22.7229 32.5734ZM12.5877 14.6137C12.4345 13.9892 12.2546 13.367 12.052 12.7683C12.005 12.6287 11.9542 12.4845 11.9018 12.3411C11.4572 11.1104 10.9048 9.93651 10.2613 8.85145C9.30524 7.24054 8.16175 5.83982 6.86574 4.68874C6.78 4.61211 6.65101 4.61362 6.56602 4.68874C6.48104 4.76538 6.46662 4.89286 6.53415 4.98543C8.15947 7.27013 9.34166 10.02 9.95173 12.939C9.9798 13.0718 10.0071 13.2092 10.0322 13.3503C9.87357 13.408 9.72712 13.4618 9.58447 13.5112C6.4909 14.5833 3.26454 14.9551 0.251404 14.5856C0.139862 14.5719 0.0351496 14.6433 0.00707453 14.7525C-0.0210006 14.8625 0.0366672 14.9756 0.14138 15.0173C0.397849 15.1205 0.615621 15.2017 0.823528 15.2723C2.38739 15.8072 4.0514 16.0743 5.79661 16.0743C6.70336 16.0743 7.63136 16.0015 8.57832 15.8566C9.09581 15.7776 9.63 15.6737 10.1649 15.5477C10.2939 15.5181 10.4244 15.4848 10.5641 15.4483C10.5732 15.4468 10.583 15.4445 10.5921 15.4415C11.206 15.2844 11.829 15.0947 12.4443 14.8785C12.5528 14.8405 12.6151 14.726 12.5877 14.6137ZM12.2387 19.3341C11.6211 19.1527 10.992 18.9979 10.3729 18.875C10.2264 18.8454 10.0769 18.8173 9.92669 18.79C8.63827 18.5616 7.34605 18.4531 6.08495 18.4675C4.21075 18.4888 2.42684 18.7779 0.780278 19.3257C0.67253 19.3622 0.608033 19.4737 0.631555 19.5852C0.655837 19.6968 0.759032 19.7734 0.873608 19.7628C3.66518 19.4965 6.63735 19.8485 9.46914 20.7796C9.59661 20.8213 9.7294 20.8668 9.86522 20.9139C9.83715 21.0808 9.80907 21.2348 9.78024 21.3843C9.16259 24.5985 7.87113 27.5798 6.04625 30.0041C5.97796 30.0944 5.98707 30.2204 6.0675 30.2985C6.11151 30.3418 6.16842 30.363 6.22457 30.363C6.27389 30.363 6.32245 30.3471 6.36267 30.3145C6.58196 30.1422 6.76027 29.9958 6.92569 29.8509C8.81734 28.199 10.2917 26.0372 11.31 23.427C11.4996 22.9391 11.6764 22.4246 11.835 21.898C11.8752 21.7637 11.9155 21.6226 11.9557 21.4761C12.1264 20.8653 12.2736 20.2294 12.395 19.5905C12.417 19.476 12.3487 19.3659 12.2387 19.3341Z" fill="#177FBF"/>
</svg>
